<svg width="64" height="64" viewBox="0 0 64 64" fill="none" xmlns="http://www.w3.org/2000/svg">
<path d="M58.6667 3.55554H39.2889C38.8174 3.55554 38.3652 3.74284 38.0318 4.07624C37.6984 4.40964 37.5111 4.86182 37.5111 5.33332C37.5111 5.80482 37.6984 6.257 38.0318 6.5904C38.3652 6.9238 38.8174 7.1111 39.2889 7.1111H54.4533L38.7733 23.1111C38.6099 23.278 38.481 23.4755 38.3939 23.6923C38.3068 23.909 38.2632 24.1408 38.2657 24.3744C38.2682 24.608 38.3166 24.8388 38.4083 25.0537C38.5 25.2685 38.6331 25.4632 38.8 25.6267C38.9669 25.7901 39.1644 25.919 39.3812 26.0061C39.5979 26.0932 39.8297 26.1368 40.0633 26.1343C40.2969 26.1318 40.5277 26.0834 40.7426 25.9917C40.9574 25.9 41.1521 25.7669 41.3156 25.6L56.8889 9.70665V24.7111C56.8889 25.1826 57.0762 25.6348 57.4096 25.9682C57.743 26.3016 58.1952 26.4889 58.6667 26.4889C59.1382 26.4889 59.5903 26.3016 59.9237 25.9682C60.2571 25.6348 60.4444 25.1826 60.4444 24.7111V5.33332C60.4444 4.86182 60.2571 4.40964 59.9237 4.07624C59.5903 3.74284 59.1382 3.55554 58.6667 3.55554Z" fill="#14E3DD"/>
<path d="M22.1511 19.0756C21.8809 18.9195 21.5743 18.8374 21.2623 18.8374C20.9502 18.8374 20.6436 18.9195 20.3734 19.0756L4.94226 27.9645L21.3334 37.3334L37.6712 27.9822L22.1511 19.0756Z" fill="#14E3DD"/>
<path d="M3.55556 49.2977C3.55431 49.611 3.63587 49.919 3.79196 50.1906C3.94806 50.4622 4.17315 50.6878 4.44444 50.8444L19.5556 59.4844V39.9289L3.55556 30.72V49.2977Z" fill="#14E3DD"/>
<path d="M23.1111 59.4845L38.2222 50.8445C38.4935 50.6878 38.7186 50.4623 38.8747 50.1907C39.0308 49.9191 39.1123 49.6111 39.1111 49.2978V30.7378L23.1111 39.8933V59.4845Z" fill="#14E3DD"/>
</svg>
