<svg width="67" height="67" viewBox="0 0 67 67" fill="none" xmlns="http://www.w3.org/2000/svg">
<path d="M51.5342 43.6756C46.1742 46.3905 40.9873 49.1054 33.5 49.1054C26.0128 49.1054 20.8258 46.3905 15.4658 43.6756M24.5527 47.6998C23.2872 49.5459 21.9316 51.3287 20.4908 53.0416C10.1896 52.7485 6.28125 46.0625 6.28125 46.0625C6.42767 36.5891 8.72337 27.2726 12.9952 18.8158C16.7503 15.8782 21.3257 14.1807 26.0881 13.9583L27.484 17.1827C29.4776 16.9059 31.4873 16.7613 33.5 16.75C35.5217 16.7566 37.5407 16.8965 39.544 17.1687L40.9398 13.9443C45.7069 14.1788 50.2828 15.8911 54.0327 18.8437C58.2908 27.2944 60.5768 36.6007 60.7188 46.0625C60.7188 46.0625 56.8104 52.7485 46.5092 53.0416C45.0902 51.3369 43.7578 49.562 42.5171 47.7235L24.5527 47.6998Z" stroke="#E1E1E1" stroke-width="2" stroke-linecap="round" stroke-linejoin="round"/>
<path d="M24.9114 41.2886C27.4939 41.2886 29.5874 39.1951 29.5874 36.6126C29.5874 34.0301 27.4939 31.9365 24.9114 31.9365C22.3289 31.9365 20.2354 34.0301 20.2354 36.6126C20.2354 39.1951 22.3289 41.2886 24.9114 41.2886Z" stroke="#E1E1E1" stroke-width="2" stroke-linecap="round" stroke-linejoin="round"/>
<path d="M42.0886 41.2886C44.6711 41.2886 46.7647 39.1951 46.7647 36.6126C46.7647 34.0301 44.6711 31.9365 42.0886 31.9365C39.5061 31.9365 37.4126 34.0301 37.4126 36.6126C37.4126 39.1951 39.5061 41.2886 42.0886 41.2886Z" stroke="#E1E1E1" stroke-width="2" stroke-linecap="round" stroke-linejoin="round"/>
</svg>
