<svg width="64" height="64" viewBox="0 0 64 64" fill="none" xmlns="http://www.w3.org/2000/svg">
<path d="M32 0C14.3307 0 0 14.3307 0 32C0 49.6693 14.3307 64 32 64C49.6693 64 64 49.6693 64 32C64 14.3307 49.6773 0 32 0ZM15.7867 33.0747L15.9227 32.8587L24.2507 19.8347C24.2786 19.7919 24.3174 19.7573 24.3632 19.7347C24.409 19.712 24.4601 19.7021 24.511 19.7059C24.562 19.7097 24.611 19.7271 24.6529 19.7564C24.6948 19.7856 24.7281 19.8255 24.7493 19.872C26.136 22.9893 27.3413 26.8667 26.776 29.28C26.5413 30.272 25.8827 31.616 25.1387 32.8587C25.0432 33.0404 24.9391 33.2175 24.8267 33.3893C24.7997 33.4277 24.7637 33.4587 24.7218 33.4796C24.6799 33.5006 24.6335 33.5108 24.5867 33.5093H16.0347C15.9836 33.5101 15.9333 33.4971 15.8891 33.4716C15.8449 33.4461 15.8084 33.4091 15.7835 33.3645C15.7586 33.3199 15.7463 33.2694 15.7478 33.2184C15.7493 33.1674 15.7645 33.1177 15.792 33.0747H15.7867ZM52.8907 37.5547C52.8913 37.6116 52.8753 37.6675 52.8444 37.7154C52.8136 37.7632 52.7694 37.801 52.7173 37.824C52.0693 38.0987 49.864 39.1173 48.9467 40.3893C46.6053 43.648 44.8187 48.3093 40.8187 48.3093H24.1413C22.7332 48.3072 21.3394 48.0277 20.0394 47.4866C18.7393 46.9456 17.5587 46.1537 16.5649 45.1562C15.5711 44.1586 14.7836 42.975 14.2474 41.673C13.7112 40.371 13.4368 38.9761 13.44 37.568V37.376C13.44 37.2213 13.568 37.0933 13.728 37.0933H23.0213C23.208 37.0933 23.3413 37.2613 23.328 37.4453C23.2587 38.048 23.3733 38.6693 23.6613 39.232C24.2107 40.352 25.3573 41.0507 26.592 41.0507H31.1947V37.4587H26.64C26.5866 37.4581 26.5344 37.443 26.489 37.4149C26.4436 37.3869 26.4067 37.347 26.3823 37.2995C26.3579 37.2521 26.3469 37.1989 26.3504 37.1456C26.354 37.0923 26.3721 37.0411 26.4027 36.9973L26.5707 36.7573C26.9973 36.1413 27.6133 35.1947 28.2267 34.112C28.6427 33.3813 29.048 32.6027 29.3733 31.8187C29.4373 31.68 29.488 31.5333 29.5467 31.392C29.6347 31.1413 29.7253 30.9067 29.7893 30.6747C29.8521 30.4779 29.9099 30.2797 29.9627 30.08C30.1147 29.4133 30.1787 28.7093 30.1787 27.9813C30.1787 27.6933 30.168 27.392 30.1413 27.1093C30.128 26.7973 30.088 26.4827 30.0507 26.1707C30.0208 25.8915 29.9781 25.6139 29.9227 25.3387C29.8509 24.9196 29.7637 24.5033 29.6613 24.0907L29.624 23.9307C29.544 23.6427 29.4747 23.3707 29.384 23.0853C29.1301 22.2091 28.8383 21.3443 28.5093 20.4933C28.3947 20.1733 28.2684 19.8575 28.1307 19.5467C27.9387 19.072 27.7413 18.6427 27.5627 18.24C27.4738 18.0675 27.3902 17.8923 27.312 17.7147C27.2253 17.523 27.1337 17.3336 27.0373 17.1467C26.9733 17.0053 26.896 16.8693 26.8453 16.7413L26.2827 15.7067C26.2053 15.5653 26.3333 15.392 26.488 15.4373L30.008 16.3893H30.0347L30.496 16.5227L31.008 16.6667L31.1947 16.7173V14.6293C31.1947 13.6187 32 12.8 33.0053 12.8C33.2427 12.7994 33.4778 12.8468 33.6964 12.9393C33.915 13.0319 34.1126 13.1677 34.2773 13.3387C34.6178 13.6821 34.8094 14.1457 34.8107 14.6293V17.7333L35.1867 17.8373C35.2133 17.8507 35.2453 17.864 35.2693 17.8827C35.36 17.9467 35.4933 18.048 35.6613 18.176C35.7947 18.2773 35.936 18.4053 36.1013 18.5413C36.6279 18.9703 37.1385 19.4187 37.632 19.8853C38.2027 20.416 38.8427 21.0373 39.456 21.728C39.6293 21.9253 39.7947 22.1173 39.968 22.3307C40.1333 22.5413 40.32 22.7467 40.4747 22.9493C40.6853 23.2267 40.9013 23.5147 41.1013 23.8133C41.1893 23.9547 41.2987 24.1013 41.3813 24.2427C41.6373 24.6213 41.856 25.0107 42.0667 25.4027C42.1573 25.5813 42.2453 25.7787 42.3227 25.9707C42.56 26.496 42.7467 27.0267 42.8613 27.5653C42.8993 27.6797 42.9252 27.7976 42.9387 27.9173V27.944C42.976 28.096 42.9893 28.264 43.0027 28.4347C43.0778 29.2229 42.9813 30.0179 42.72 30.7653C42.6373 30.9893 42.56 31.2187 42.4587 31.4427C42.2587 31.896 42.0293 32.3573 41.7547 32.7813C41.664 32.9413 41.5547 33.1067 41.4533 33.2667C41.3387 33.4347 41.216 33.5947 41.1147 33.7467C40.968 33.9486 40.8142 34.1452 40.6533 34.336C40.512 34.528 40.3707 34.72 40.2107 34.8933C39.9947 35.1547 39.784 35.4 39.5573 35.6347C39.4293 35.7893 39.2907 35.9493 39.1413 36.088C39.0027 36.248 38.8533 36.3893 38.7253 36.5173C38.5013 36.7413 38.3253 36.9093 38.1707 37.056L37.8053 37.3813C37.7545 37.4324 37.6854 37.4612 37.6133 37.4613H34.8107V41.0507H38.336C39.1227 41.0507 39.872 40.7733 40.48 40.256C40.6853 40.0773 41.5867 39.296 42.656 38.1173C42.6908 38.0772 42.7375 38.0492 42.7893 38.0373L52.5227 35.2187C52.5654 35.2063 52.6104 35.204 52.6542 35.212C52.698 35.2199 52.7393 35.2379 52.7749 35.2645C52.8106 35.2911 52.8396 35.3256 52.8597 35.3653C52.8797 35.405 52.8904 35.4488 52.8907 35.4933V37.5547Z" fill="#2081E2"/>
</svg>
