<svg width="67" height="67" viewBox="0 0 67 67" fill="none" xmlns="http://www.w3.org/2000/svg">
<path d="M56 14.0224C56 14.0224 51.5054 16.6796 49.0064 17.4331C47.665 15.8894 45.8822 14.7953 43.8993 14.2987C41.9164 13.8021 39.8289 13.927 37.9192 14.6565C36.0095 15.386 34.3697 16.685 33.2216 18.3776C32.0736 20.0703 31.4726 22.075 31.5 24.1207V26.3499C27.5859 26.4515 23.7074 25.5826 20.21 23.8207C16.7126 22.0588 13.7048 19.4586 11.4545 16.2516C11.4545 16.2516 2.54545 36.3144 22.5909 45.2312C18.0039 48.3475 12.5396 49.9101 7 49.6896C27.0455 60.8356 51.5455 49.6896 51.5455 24.0538C51.5455 23.4341 51.4831 22.8144 51.3673 22.2036C53.6391 19.961 56 14.0224 56 14.0224Z" stroke="#E1E1E1" stroke-width="2" stroke-linecap="round" stroke-linejoin="round"/>
</svg>
