<svg width="42" height="57" viewBox="0 0 42 57" fill="none" xmlns="http://www.w3.org/2000/svg">
<path d="M24.5 15.1406V0H2.625C1.17031 0 0 1.19121 0 2.67188V54.3281C0 55.8088 1.17031 57 2.625 57H39.375C40.8297 57 42 55.8088 42 54.3281V17.8125H27.125C25.6812 17.8125 24.5 16.6102 24.5 15.1406ZM31.6291 39.1886H24.5V48.0949C24.5 49.079 23.7169 49.8761 22.75 49.8761H19.25C18.2831 49.8761 17.5 49.079 17.5 48.0949V39.1886H10.3709C8.80906 39.1886 8.02922 37.2637 9.13828 36.1427L19.6842 25.4886C20.4116 24.7527 21.5863 24.7527 22.3136 25.4886L32.8595 36.1427C33.9697 37.2637 33.1909 39.1886 31.6291 39.1886ZM41.2344 11.6895L30.5266 0.779297C30.0344 0.27832 29.3672 0 28.6672 0H28V14.25H42V13.5709C42 12.8695 41.7266 12.1904 41.2344 11.6895Z" fill="#E37436"/>
</svg>
