<svg width="75" height="67" viewBox="0 0 75 67" fill="none" xmlns="http://www.w3.org/2000/svg">
<path d="M70.3125 19.4375H4.6875C2.09868 19.4375 0 17.3388 0 14.75V5.375C0 2.78618 2.09868 0.6875 4.6875 0.6875H70.3125C72.9013 0.6875 75 2.78618 75 5.375V14.75C75 17.3388 72.9013 19.4375 70.3125 19.4375ZM63.2812 6.54688C61.3396 6.54688 59.7656 8.12085 59.7656 10.0625C59.7656 12.0042 61.3396 13.5781 63.2812 13.5781C65.2229 13.5781 66.7969 12.0042 66.7969 10.0625C66.7969 8.12085 65.2229 6.54688 63.2812 6.54688ZM53.9062 6.54688C51.9646 6.54688 50.3906 8.12085 50.3906 10.0625C50.3906 12.0042 51.9646 13.5781 53.9062 13.5781C55.8479 13.5781 57.4219 12.0042 57.4219 10.0625C57.4219 8.12085 55.8479 6.54688 53.9062 6.54688ZM70.3125 42.875H4.6875C2.09868 42.875 0 40.7763 0 38.1875V28.8125C0 26.2237 2.09868 24.125 4.6875 24.125H70.3125C72.9013 24.125 75 26.2237 75 28.8125V38.1875C75 40.7763 72.9013 42.875 70.3125 42.875ZM63.2812 29.9844C61.3396 29.9844 59.7656 31.5583 59.7656 33.5C59.7656 35.4417 61.3396 37.0156 63.2812 37.0156C65.2229 37.0156 66.7969 35.4417 66.7969 33.5C66.7969 31.5583 65.2229 29.9844 63.2812 29.9844ZM53.9062 29.9844C51.9646 29.9844 50.3906 31.5583 50.3906 33.5C50.3906 35.4417 51.9646 37.0156 53.9062 37.0156C55.8479 37.0156 57.4219 35.4417 57.4219 33.5C57.4219 31.5583 55.8479 29.9844 53.9062 29.9844ZM70.3125 66.3125H4.6875C2.09868 66.3125 0 64.2138 0 61.625V52.25C0 49.6612 2.09868 47.5625 4.6875 47.5625H70.3125C72.9013 47.5625 75 49.6612 75 52.25V61.625C75 64.2138 72.9013 66.3125 70.3125 66.3125ZM63.2812 53.4219C61.3396 53.4219 59.7656 54.9958 59.7656 56.9375C59.7656 58.8792 61.3396 60.4531 63.2812 60.4531C65.2229 60.4531 66.7969 58.8792 66.7969 56.9375C66.7969 54.9958 65.2229 53.4219 63.2812 53.4219ZM53.9062 53.4219C51.9646 53.4219 50.3906 54.9958 50.3906 56.9375C50.3906 58.8792 51.9646 60.4531 53.9062 60.4531C55.8479 60.4531 57.4219 58.8792 57.4219 56.9375C57.4219 54.9958 55.8479 53.4219 53.9062 53.4219Z" fill="#0280B5"/>
</svg>
